# xmcd
#
# Track frame offsets: 
#        150
#        34392
#        64342
#        115925
#        127212
#        168317
#        196542
#        223955
#        244515
#        281767
#        285937
#        291900
#        299195
#        302420
#        311475
#        314895
#        318640
#        323787
#
# Disc length: 4391 seconds
#
# Revision: 6
# Processed by: cddbd v1.5.2PL0 Copyright (c) Steve Scherf et al.
# Submitted via: ExactAudioCopy v0.99pb4
#
DISCID=2a112512
DTITLE=Bernstein,  Leonard - Brenstein Conducts Bernstein Vol.2 , Bern
DTITLE=setin NYPO
DYEAR=1900
DGENRE=Classical
TTITLE0=Symphony N°1 (Jeremiah) - I. Prophecy  [Jennie Tourel, mezzo-s
TTITLE0=oprano - New York Philharmonic]
TTITLE1=Symphony N°1 (Jeremiah) - II. Profanation
TTITLE2=Symphony N°1 (Jeremiah) - III. Lamentation
TTITLE3=Symphony N°2 (The age of anxiety) for piano and orchestra - Part
TTITLE3=I. a) The Prologue [Entremont, piano]
TTITLE4=Symphony N°2 (The age of anxiety) for piano and orchestra - Part
TTITLE4=I. b) The Seven Ages
TTITLE5=Symphony N°2 (The age of anxiety) for piano and orchestra - Part
TTITLE5=I. c) The Seven Stages
TTITLE6=Symphony N°2 (The age of anxiety) for piano and orchestra - Part
TTITLE6=II. a) The Dirge
TTITLE7=Symphony N°2 (The age of anxiety) for piano and orchestra - Part
TTITLE7=II. b) The Masque
TTITLE8=Symphony N°2 (The age of anxiety) for piano and orchestra - Part
TTITLE8=II. c) The Epilogue
TTITLE9=I Hate Music! A cycle of five kid songs for soprano - I. Moder
TTITLE9=ato  [Bernstein, piano]
TTITLE10=I Hate Music! A cycle of five kid songs for soprano - II. All
TTITLE10=egretto vivace
TTITLE11=I Hate Music! A cycle of five kid songs for soprano - III. So
TTITLE11=stenuto - Allegro molto
TTITLE12=I Hate Music! A cycle of five kid songs for soprano - IV. Con
TTITLE12=Brio
TTITLE13=I Hate Music! A cycle of five kid songs for soprano - V. Mode
TTITLE13=rato, alla marcia - Andante
TTITLE14=La Bonne Cuisine - I. Plum Pudding  [Jennie Tourel, mezzo-sop
TTITLE14=rano - Bernstein, piano]
TTITLE15=La Bonne Cuisine - II. Queues de Boeuf (Ox-tails)
TTITLE16=La Bonne Cuisine - III. Taveuk Gueunksis
TTITLE17=La Bonne Cuisine - IV. Civet à Toute Vitesse (Rabbit at Top S
TTITLE17=peed)
EXTD=
EXTT0=
EXTT1=
EXTT2=
EXTT3=
EXTT4=
EXTT5=
EXTT6=
EXTT7=
EXTT8=
EXTT9=
EXTT10=
EXTT11=
EXTT12=
EXTT13=
EXTT14=
EXTT15=
EXTT16=
EXTT17=
PLAYORDER=
